<?xml version="1.0" encoding="UTF-8"?>
<svg width="109px" height="16px" viewBox="0 0 109 16" version="1.1" xmlns="http://www.w3.org/2000/svg" xmlns:xlink="http://www.w3.org/1999/xlink">
    <!-- Generator: Sketch 51 (57462) - http://www.bohemiancoding.com/sketch -->
    <title>icon/logo/GammaLAB</title>
    <desc>Created with Sketch.</desc>
    <defs></defs>
    <g id="icon/logo/GammaLAB" stroke="none" stroke-width="1" fill="none" fill-rule="evenodd">
        <g id="GammaLAB" fill="#FFFFFF">
            <path d="M91.7993372,15.4509631 C91.3540813,15.4509631 90.9544959,15.1846134 90.7814355,14.7726056 L85.7593975,2.72743575 C85.6814534,2.54061341 85.4164434,2.54183128 85.3400825,2.72926257 L80.7243283,14.0640447 C80.3663942,14.8992648 79.6902288,15.4509631 78.8947115,15.4509631 L71.1322065,15.4509631 C69.4861238,15.4509631 68.1516959,14.1165352 68.1516959,12.4704525 L68.1516959,1.24016425 C68.1516959,0.647058101 68.6070601,0.136402235 69.1995573,0.107903911 C69.8332188,0.0774569832 70.3584892,0.583241341 70.3584892,1.20910838 L70.3584892,12.4706961 C70.3584892,12.8967095 70.7070456,13.2452659 71.133059,13.2452659 L78.376992,13.2452659 C78.5604042,13.2452659 78.7255484,13.1341955 78.7947238,12.9643017 L83.5081517,1.37827151 C83.8386836,0.54183352 84.6398031,0 85.5479741,0 C86.4321528,0 87.2266959,0.526731844 87.5723294,1.34197877 L92.8180914,13.9231363 C93.0511931,14.4853084 92.7848434,15.1320011 92.2246199,15.3651028 C92.0888266,15.4219777 91.9456042,15.4509631 91.7993372,15.4509631" id="Fill-1"></path>
            <path d="M40.2397431,15.4597197 C39.6323878,15.4597197 39.1381733,14.9655051 39.1381733,14.358028 L39.1381733,11.3317253 C39.1381733,11.3317253 39.54738,11.8102292 40.2566716,11.8102292 C40.966085,11.8102292 41.3415565,11.3194247 41.3415565,11.3194247 L41.3415565,14.358028 C41.3415565,14.9655051 40.847342,15.4597197 40.2397431,15.4597197" id="Fill-3"></path>
            <path d="M39.2081282,5.84624849 L39.2081282,1.2781133 C39.2081282,0.812031732 39.5024891,0.395030615 39.9405594,0.240482011 C40.0596678,0.198099888 40.1843784,0.176543464 40.3106723,0.176543464 C40.6431527,0.176543464 40.9540768,0.324637318 41.1636734,0.583070838 L43.3800879,3.29844961 L41.9831829,5.08397922 L41.4115114,4.37712335 L41.4115114,5.79631553 L40.2920388,7.17763173 L39.2081282,5.84624849 Z" id="Fill-5"></path>
            <path d="M47.4015912,15.4597197 C46.7942359,15.4597197 46.3000213,14.9655051 46.3000213,14.358028 L46.3000213,4.38446715 L41.1501063,10.72778 C40.9383174,10.9864571 40.6265409,11.1344292 40.2940604,11.1344292 C39.9606057,11.1344292 39.6488292,10.9867007 39.4386236,10.7291197 L34.2682482,4.37728168 L34.2682482,14.358028 C34.2682482,14.9655051 33.7739118,15.4597197 33.166313,15.4597197 C32.5577398,15.4597197 32.0626727,14.9655051 32.0626727,14.358028 L32.0626727,1.27875877 C32.0626727,0.812068268 32.3580079,0.395067151 32.7977834,0.240883911 C32.9164046,0.198623575 33.0411152,0.177067151 33.1672873,0.177067151 C33.4998895,0.177067151 33.8106917,0.325282793 34.0202884,0.583594525 L40.2919901,8.28569285 L46.5459107,0.583472737 C46.7566035,0.324795642 47.0685018,0.17658 47.4015912,0.17658 C47.5275197,0.17658 47.651256,0.198014637 47.7697554,0.24039676 C48.208313,0.395310726 48.5035264,0.812677207 48.5035264,1.27875877 L48.5035264,14.358028 C48.5035264,14.9655051 48.0091901,15.4597197 47.4015912,15.4597197" id="Fill-7"></path>
            <path d="M97.2953851,2.30365106 C96.9840958,2.30365106 96.7316298,2.5559952 96.7316298,2.86740637 L96.7316298,12.6917773 C96.7316298,13.0030667 96.9840958,13.2554108 97.2953851,13.2554108 L106.197458,13.2554108 C106.508747,13.2554108 106.761213,13.0030667 106.761213,12.6917773 L106.761213,9.44637844 C106.761213,9.13508905 106.508747,8.88262313 106.197458,8.88262313 L99.791546,8.88262313 C99.1894276,8.88262313 98.6995974,8.3914533 98.6995974,7.78762983 C98.6995974,7.18538961 99.1894276,6.69555944 99.791546,6.69555944 L106.199772,6.70103989 C106.511426,6.70128346 106.764136,6.44845218 106.763892,6.13679743 L106.761213,2.86740637 C106.761213,2.5559952 106.508747,2.30365106 106.197458,2.30365106 L97.2953851,2.30365106 Z M96.7922801,15.4407695 C95.553212,15.4407695 94.5452969,14.4332198 94.5452969,13.1948823 L94.5452969,2.36417955 C94.5452969,1.12645106 95.553212,0.119266704 96.7922801,0.119266704 L106.700563,0.119266704 C107.938291,0.119266704 108.945232,1.12645106 108.945232,2.36417955 L108.945232,6.25079073 C108.945232,6.82063542 108.68619,7.45843765 108.229729,7.77983542 C108.673889,8.08759296 108.945232,8.73964436 108.945232,9.30827117 L108.945232,13.1948823 C108.945232,14.4332198 107.938291,15.4407695 106.700563,15.4407695 L96.7922801,15.4407695 Z" id="Fill-9"></path>
            <path d="M2.93898101,15.4475287 C1.31835196,15.4475287 0,14.1294203 0,12.5094002 L0,3.05818682 C0,1.4381667 1.31835196,0.120180112 2.93898101,0.120180112 L13.3349017,0.120180112 C13.9378726,0.120180112 14.4285553,0.610253855 14.4285553,1.21261587 C14.4285553,1.81522145 13.9378726,2.30541698 13.3349017,2.30541698 L2.93898101,2.30541698 C2.52344134,2.30541698 2.18523687,2.6431343 2.18523687,3.05818682 L2.18523687,12.5094002 C2.18523687,12.9245745 2.52344134,13.2621701 2.93898101,13.2621701 L11.4883564,13.2621701 C11.9041397,13.2621701 12.2423441,12.9245745 12.2423441,12.5094002 L12.2423441,8.98778682 C12.2423441,8.57151642 11.9041397,8.23294659 11.4883564,8.23294659 L7.72645587,8.23294659 C7.12409385,8.23294659 6.63402011,7.74275106 6.63402011,7.14038905 C6.63402011,6.53802704 7.12409385,6.0479533 7.72645587,6.0479533 L11.4883564,6.0479533 C13.1095944,6.0479533 14.4285553,7.36667061 14.4285553,8.98778682 L14.4285553,12.5094002 C14.4285553,14.1294203 13.1095944,15.4475287 11.4883564,15.4475287 L2.93898101,15.4475287 Z" id="Fill-12"></path>
            <path d="M17.1140717,15.4278965 C16.9749902,15.4278965 16.8376136,15.4008597 16.7053522,15.3475166 C16.146712,15.118434 15.8776829,14.4770999 16.104208,13.9172418 L21.1587634,1.43059151 C21.4857634,0.598537877 22.2784796,0.0596272626 23.1772728,0.0596272626 C24.0521958,0.0596272626 24.8384572,0.583557989 25.1804371,1.39442056 L30.3712728,13.9083513 C30.601817,14.4673569 30.338512,15.1105178 29.7844997,15.3424016 C29.650655,15.3987893 29.5091377,15.4274094 29.3645756,15.4275312 C28.9224863,15.4275312 28.5272851,15.1625211 28.3577566,14.7523401 L23.3866259,2.76806413 C23.3096561,2.58221609 23.0473254,2.58343397 22.971817,2.76989095 L18.1266147,14.7447893 C17.9573298,15.1599636 17.5600583,15.4278965 17.1140717,15.4278965" id="Fill-14"></path>
            <path d="M51.8464285,15.4278965 C51.7073469,15.4278965 51.5699704,15.4008597 51.4377089,15.3475166 C50.8790687,15.118434 50.6100397,14.4770999 50.8365648,13.9172418 L55.8911201,1.43059151 C56.2181201,0.598537877 57.0108363,0.0596272626 57.9096296,0.0596272626 C58.7845525,0.0596272626 59.570814,0.583557989 59.9127939,1.39442056 L65.1036296,13.9083513 C65.3341737,14.4673569 65.0708687,15.1105178 64.5168564,15.3424016 C64.3830117,15.3987893 64.2416162,15.4274094 64.0969324,15.4275312 C63.6549648,15.4275312 63.2596419,15.1625211 63.0901134,14.7523401 L58.1189827,2.76806413 C58.0420128,2.58221609 57.7796821,2.58343397 57.7041737,2.76989095 L52.8589715,14.7447893 C52.6896866,15.1599636 52.2924151,15.4278965 51.8464285,15.4278965" id="Fill-16"></path>
        </g>
    </g>
</svg>